<?xml version="1.0" standalone="no"?>
<!DOCTYPE svg PUBLIC "-//W3C//DTD SVG 20010904//EN"
 "http://www.w3.org/TR/2001/REC-SVG-20010904/DTD/svg10.dtd">
<svg version="1.0" xmlns="http://www.w3.org/2000/svg"
 width="190.000000pt" height="46.000000pt" viewBox="0 0 190.000000 46.000000"
 preserveAspectRatio="xMidYMid meet">
<metadata>
Created by potrace 1.11, written by Peter Selinger 2001-2013
</metadata>
<g transform="translate(0.000000,46.000000) scale(0.100000,-0.100000)"
fill="#000000" stroke="none">
<path d="M44 327 c-72 -66 -51 -181 38 -215 48 -19 98 -9 132 25 51 51 19 74
-37 27 -36 -30 -81 -27 -109 7 -36 43 -26 49 87 49 l105 0 -6 28 c-19 79 -56
112 -126 112 -41 0 -54 -5 -84 -33z"/>
<path d="M324 327 c-70 -64 -52 -178 34 -214 36 -15 68 -12 125 12 15 6 17 0
17 -59 0 -59 2 -66 20 -66 19 0 20 7 20 180 0 173 -1 180 -20 180 -11 0 -20
-7 -20 -15 0 -19 -9 -19 -34 0 -11 8 -39 15 -63 15 -35 0 -50 -6 -79 -33z
m139 -27 c76 -60 6 -187 -82 -150 -36 14 -64 69 -55 105 15 58 89 83 137 45z"/>
<path d="M590 261 c0 -84 3 -102 20 -124 27 -34 81 -45 115 -23 14 9 25 12 25
6 0 -5 11 -10 25 -10 l26 0 -3 123 c-3 114 -4 122 -23 122 -18 0 -20 -8 -25
-92 -3 -52 -10 -97 -17 -104 -16 -16 -70 -16 -86 0 -7 7 -13 50 -15 106 -4 86
-6 95 -23 95 -17 0 -19 -8 -19 -99z"/>
<path d="M950 235 c0 -115 1 -125 19 -125 16 0 19 11 24 86 3 62 10 90 22 105
19 19 60 25 83 11 19 -12 32 -69 32 -139 0 -57 2 -63 21 -63 20 0 21 4 17 101
-3 96 -4 102 -31 125 -33 28 -91 32 -125 8 -20 -14 -22 -14 -22 0 0 9 -9 16
-20 16 -19 0 -20 -7 -20 -125z"/>
<path d="M1440 355 c0 -2 16 -30 36 -60 l35 -56 -40 -65 c-40 -63 -40 -64 -16
-64 18 0 31 11 51 45 14 25 28 45 30 45 2 0 15 -20 30 -45 20 -34 32 -45 51
-45 l25 0 -23 38 c-12 20 -29 46 -36 57 -19 28 -16 41 15 88 45 67 45 67 20
67 -16 0 -31 -12 -48 -40 -14 -22 -28 -40 -32 -40 -4 0 -18 18 -30 40 -16 28
-30 40 -45 40 -13 0 -23 -2 -23 -5z"/>
<path d="M1687 326 c-39 -38 -50 -79 -37 -128 21 -76 111 -119 178 -84 29 15
62 51 62 68 0 15 -34 8 -55 -12 -11 -11 -35 -23 -53 -26 -26 -5 -36 -1 -62 24
-16 17 -30 35 -30 41 0 7 37 11 105 11 99 0 105 1 105 20 0 30 -26 75 -56 99
-19 15 -41 21 -75 21 -42 0 -53 -5 -82 -34z"/>
</g>
</svg>
